<mxfile host="app.diagrams.net" modified="2021-11-11T11:45:10.030Z" agent="5.0 (Windows)" etag="GZ7BQKHKXOf4DlNRb69-" version="15.7.0" type="github">
  <diagram id="hqGkgfw6MOZt2o8de5VF" name="Page-1">
    <mxGraphModel dx="629" dy="839" grid="1" gridSize="10" guides="1" tooltips="1" connect="1" arrows="1" fold="1" page="1" pageScale="1" pageWidth="827" pageHeight="1169" math="0" shadow="0">
      <root>
        <mxCell id="0" />
        <mxCell id="1" parent="0" />
        <mxCell id="81V3bFYnpVTNeKnOiC7m-6" style="edgeStyle=orthogonalEdgeStyle;rounded=0;orthogonalLoop=1;jettySize=auto;html=1;" edge="1" parent="1" source="81V3bFYnpVTNeKnOiC7m-2" target="81V3bFYnpVTNeKnOiC7m-5">
          <mxGeometry relative="1" as="geometry" />
        </mxCell>
        <mxCell id="81V3bFYnpVTNeKnOiC7m-7" style="edgeStyle=orthogonalEdgeStyle;rounded=0;orthogonalLoop=1;jettySize=auto;html=1;endArrow=diamond;endFill=1;" edge="1" parent="1" source="81V3bFYnpVTNeKnOiC7m-2">
          <mxGeometry relative="1" as="geometry">
            <mxPoint x="430" y="120" as="targetPoint" />
            <Array as="points">
              <mxPoint x="570" y="120" />
            </Array>
          </mxGeometry>
        </mxCell>
        <mxCell id="81V3bFYnpVTNeKnOiC7m-2" value="&lt;div&gt;RLC&lt;/div&gt;" style="rounded=0;whiteSpace=wrap;html=1;" vertex="1" parent="1">
          <mxGeometry x="510" y="170" width="120" height="60" as="geometry" />
        </mxCell>
        <mxCell id="81V3bFYnpVTNeKnOiC7m-3" value="" style="pointerEvents=1;verticalLabelPosition=bottom;shadow=0;dashed=0;align=center;html=1;verticalAlign=top;shape=mxgraph.electrical.capacitors.capacitor_1;rotation=90;" vertex="1" parent="1">
          <mxGeometry x="510" y="195" width="40" height="10" as="geometry" />
        </mxCell>
        <mxCell id="81V3bFYnpVTNeKnOiC7m-4" value="" style="pointerEvents=1;verticalLabelPosition=bottom;shadow=0;dashed=0;align=center;html=1;verticalAlign=top;shape=mxgraph.electrical.inductors.inductor_3;rotation=90;" vertex="1" parent="1">
          <mxGeometry x="600" y="198" width="40" height="4" as="geometry" />
        </mxCell>
        <mxCell id="81V3bFYnpVTNeKnOiC7m-9" style="edgeStyle=orthogonalEdgeStyle;rounded=0;orthogonalLoop=1;jettySize=auto;html=1;endArrow=diamond;endFill=1;" edge="1" parent="1" source="81V3bFYnpVTNeKnOiC7m-5">
          <mxGeometry relative="1" as="geometry">
            <mxPoint x="440" y="460" as="targetPoint" />
            <Array as="points">
              <mxPoint x="570" y="460" />
              <mxPoint x="440" y="460" />
            </Array>
          </mxGeometry>
        </mxCell>
        <mxCell id="81V3bFYnpVTNeKnOiC7m-5" value="Comparador" style="rounded=0;whiteSpace=wrap;html=1;" vertex="1" parent="1">
          <mxGeometry x="510" y="300" width="120" height="60" as="geometry" />
        </mxCell>
        <mxCell id="81V3bFYnpVTNeKnOiC7m-16" value="" style="pointerEvents=1;verticalLabelPosition=bottom;shadow=0;dashed=0;align=center;html=1;verticalAlign=top;shape=mxgraph.electrical.waveforms.pulse_1;fillColor=#f8cecc;strokeColor=#b85450;" vertex="1" parent="1">
          <mxGeometry x="432" y="80" width="128" height="20" as="geometry" />
        </mxCell>
        <mxCell id="81V3bFYnpVTNeKnOiC7m-19" value="" style="pointerEvents=1;verticalLabelPosition=bottom;shadow=0;dashed=0;align=center;html=1;verticalAlign=top;shape=mxgraph.electrical.waveforms.sine_wave;fillColor=#f8cecc;strokeColor=#b85450;" vertex="1" parent="1">
          <mxGeometry x="441" y="230" width="40" height="66.18" as="geometry" />
        </mxCell>
        <mxCell id="81V3bFYnpVTNeKnOiC7m-20" value="" style="pointerEvents=1;verticalLabelPosition=bottom;shadow=0;dashed=0;align=center;html=1;verticalAlign=top;shape=mxgraph.electrical.waveforms.sine_wave;fillColor=#f8cecc;strokeColor=#b85450;" vertex="1" parent="1">
          <mxGeometry x="481" y="244.82" width="40" height="36.18" as="geometry" />
        </mxCell>
        <mxCell id="81V3bFYnpVTNeKnOiC7m-21" value="" style="pointerEvents=1;verticalLabelPosition=bottom;shadow=0;dashed=0;align=center;html=1;verticalAlign=top;shape=mxgraph.electrical.waveforms.sine_wave;fillColor=#f8cecc;strokeColor=#b85450;" vertex="1" parent="1">
          <mxGeometry x="521" y="254.82" width="28" height="16.18" as="geometry" />
        </mxCell>
        <mxCell id="81V3bFYnpVTNeKnOiC7m-22" value="" style="pointerEvents=1;verticalLabelPosition=bottom;shadow=0;dashed=0;align=center;html=1;verticalAlign=top;shape=mxgraph.electrical.waveforms.pulse_1;fillColor=#f8cecc;strokeColor=#b85450;" vertex="1" parent="1">
          <mxGeometry x="440" y="480" width="30" height="20" as="geometry" />
        </mxCell>
        <mxCell id="81V3bFYnpVTNeKnOiC7m-23" value="" style="pointerEvents=1;verticalLabelPosition=bottom;shadow=0;dashed=0;align=center;html=1;verticalAlign=top;shape=mxgraph.electrical.waveforms.pulse_1;fillColor=#f8cecc;strokeColor=#b85450;" vertex="1" parent="1">
          <mxGeometry x="470" y="480" width="30" height="20" as="geometry" />
        </mxCell>
        <mxCell id="81V3bFYnpVTNeKnOiC7m-24" value="" style="pointerEvents=1;verticalLabelPosition=bottom;shadow=0;dashed=0;align=center;html=1;verticalAlign=top;shape=mxgraph.electrical.waveforms.pulse_1;fillColor=#f8cecc;strokeColor=#b85450;" vertex="1" parent="1">
          <mxGeometry x="500" y="480" width="30" height="20" as="geometry" />
        </mxCell>
        <mxCell id="81V3bFYnpVTNeKnOiC7m-25" value="" style="pointerEvents=1;verticalLabelPosition=bottom;shadow=0;dashed=0;align=center;html=1;verticalAlign=top;shape=mxgraph.electrical.waveforms.pulse_1;fillColor=#f8cecc;strokeColor=#b85450;" vertex="1" parent="1">
          <mxGeometry x="530" y="480" width="30" height="20" as="geometry" />
        </mxCell>
        <mxCell id="81V3bFYnpVTNeKnOiC7m-31" value="" style="endArrow=none;html=1;strokeWidth=1;rounded=0;" edge="1" parent="1">
          <mxGeometry width="100" relative="1" as="geometry">
            <mxPoint x="440" y="265" as="sourcePoint" />
            <mxPoint x="540" y="265" as="targetPoint" />
          </mxGeometry>
        </mxCell>
        <mxCell id="81V3bFYnpVTNeKnOiC7m-32" value="" style="endArrow=none;html=1;strokeWidth=1;rounded=0;" edge="1" parent="1">
          <mxGeometry width="100" relative="1" as="geometry">
            <mxPoint x="432" y="102" as="sourcePoint" />
            <mxPoint x="560" y="102" as="targetPoint" />
          </mxGeometry>
        </mxCell>
        <mxCell id="81V3bFYnpVTNeKnOiC7m-33" value="" style="endArrow=none;html=1;strokeWidth=1;rounded=0;" edge="1" parent="1">
          <mxGeometry width="100" relative="1" as="geometry">
            <mxPoint x="438" y="502" as="sourcePoint" />
            <mxPoint x="566" y="502" as="targetPoint" />
          </mxGeometry>
        </mxCell>
      </root>
    </mxGraphModel>
  </diagram>
</mxfile>
